<svg id="Capa_1" data-name="Capa 1" xmlns="http://www.w3.org/2000/svg" viewBox="0 0 304.93 186.16"><defs><style>.cls-1{fill:gray;}</style></defs><title>grey</title><path class="cls-1" d="M261.24,235.55a19,19,0,0,1-13.64-5.78L142.47,124.63,37.33,229.76a19,19,0,0,1-27.27,0L-4.21,215.49a19,19,0,0,1,0-27.28l133-133a18.95,18.95,0,0,1,27.27,0l133,133a19,19,0,0,1,0,27.28l-14.27,14.28A19,19,0,0,1,261.24,235.55Z" transform="translate(10 -49.38)"/><path class="cls-1" d="M282.08,195.28l-133-133a9,9,0,0,0-13.13,0l-133,133a9,9,0,0,0,0,13.14l14.27,14.27a9,9,0,0,0,13.13,0l112.21-112.2L254.67,222.7a9,9,0,0,0,13.14,0l14.27-14.28a9,9,0,0,0,0-13.14Z" transform="translate(10 -49.38)"/></svg>