<svg id="Capa_1" data-name="Capa 1" xmlns="http://www.w3.org/2000/svg" viewBox="0 0 58 58.36"><defs><style>.cls-1{fill:#fff;}.cls-2{fill:#1d1d1b;}</style></defs><title>home</title><path class="cls-1" d="M23.18,58.36h30V25L56.5,28.1a1,1,0,0,0,.68.26,1,1,0,0,0,.73-.32,1,1,0,0,0,0-1.41l-8.68-8.06V5.36h-10V9.29L29.18,0,.5,26.63A1,1,0,0,0,1.86,28.1L5.18,25V58.36h18m18-51h6v9.35l-6-5.57Zm-18,49V35.3a.94.94,0,0,1,.94-.94H34.24a.94.94,0,0,1,.94.94V56.36m16,0h-14V35.3a2.94,2.94,0,0,0-2.94-2.94H24.12a2.94,2.94,0,0,0-2.94,2.94V56.36h-14V23.16l22-20.43L43.46,16l5.72,5.31h0l2,1.86Z" transform="translate(-0.18 0)"/><rect class="cls-2" x="42.59" y="5.17" width="2.82" height="2.34"/></svg>