<svg height="512pt" viewBox="0 0 512 512" width="512pt" xmlns="http://www.w3.org/2000/svg"><path d="m423.164062 311.390625-24.164062-6.191406v-162.828125c0-78.503906-64.148438-142.371094-143-142.371094s-143 63.867188-143 142.371094v162.828125l-24.164062 6.191406c-52.304688 13.398437-88.835938 60.367187-88.835938 114.21875v76.390625c0 5.523438 4.476562 10 10 10h206c5.523438 0 10-4.476562 10-10s-4.476562-10-10-10h-116v-70c0-5.523438-4.476562-10-10-10s-10 4.476562-10 10v70h-60v-66.390625c0-44.710937 30.347656-83.714844 73.796875-94.847656l93.203125-23.875v39.429687c0 3.671875 2.011719 7.046875 5.238281 8.792969 3.230469 1.75 7.15625 1.585937 10.230469-.421875l53.53125-34.972656 53.53125 34.972656c1.65625 1.082031 3.5625 1.628906 5.46875 1.628906 1.632812 0 3.273438-.402344 4.761719-1.207031 3.226562-1.746094 5.238281-5.121094 5.238281-8.792969v-39.429687l93.203125 23.875c43.449219 11.132812 73.796875 50.136719 73.796875 94.847656v66.390625h-60v-70c0-5.523438-4.476562-10-10-10s-10 4.476562-10 10v70h-116c-5.523438 0-10 4.476562-10 10s4.476562 10 10 10h206c5.523438 0 10-4.476562 10-10v-76.390625c0-53.851563-36.53125-100.820313-88.835938-114.21875zm-167.164062-28.035156c-44.113281 0-80-38.449219-80-85.707031v-32.878907c21.523438-.457031 70.652344-6.066406 110.085938-44.566406 15.859374 22.84375 38.757812 35.695313 49.914062 40.949219v36.496094c0 47.257812-35.886719 85.707031-80 85.707031zm-49 6.410156c11.570312 6.90625 24.5625 11.445313 38.386719 12.992187l-38.386719 25.082032zm59.613281 12.992187c13.824219-1.546874 26.816407-6.085937 38.386719-12.992187v38.074219zm58.386719-28.667968c19.089844-19.261719 31-46.410156 31-76.441406v-43.070313c0-4.175781-2.613281-7.917969-6.527344-9.375-.367187-.136719-36.707031-13.980469-52.644531-45.992187-1.496094-3.003907-4.398437-5.058594-7.730469-5.46875-3.332031-.414063-6.644531.875-8.824218 3.429687-18.691407 21.871094-43.328126 36.503906-73.222657 43.488281-22.6875 5.304688-40.042969 3.96875-40.195312 3.957032-2.796875-.242188-5.554688.703124-7.617188 2.59375-2.0625 1.894531-3.238281 4.566406-3.238281 7.367187v43.070313c0 30.03125 11.910156 57.179687 31 76.441406v12.148437l-54 13.835938v-157.703125c0-67.476563 55.179688-122.371094 123-122.371094s123 54.894531 123 122.371094v157.703125l-54-13.835938zm0 0"/><path d="m265.019531 224.929688c-4.902343 4.90625-12.882812 4.90625-17.785156 0-3.90625-3.902344-10.238281-3.902344-14.144531 0-3.90625 3.90625-3.902344 10.238281 0 14.144531 6.351562 6.351562 14.695312 9.527343 23.039062 9.527343 8.339844 0 16.683594-3.175781 23.035156-9.527343 3.902344-3.90625 3.902344-10.238281 0-14.144531-3.90625-3.90625-10.238281-3.902344-14.144531 0zm0 0"/><path d="m256 492c-2.628906 0-5.210938 1.070312-7.070312 2.929688-1.859376 1.859374-2.929688 4.441406-2.929688 7.070312s1.070312 5.210938 2.929688 7.070312c1.859374 1.859376 4.441406 2.929688 7.070312 2.929688s5.210938-1.070312 7.070312-2.929688c1.859376-1.859374 2.929688-4.441406 2.929688-7.070312s-1.070312-5.210938-2.929688-7.070312c-1.859374-1.859376-4.441406-2.929688-7.070312-2.929688zm0 0"/></svg>