<svg id="Capa_1" enable-background="new 0 0 512 512" height="512" viewBox="0 0 512 512" width="512" xmlns="http://www.w3.org/2000/svg"><circle cx="256" cy="256" fill="#4a7aff" r="256"/><path d="m510.706 281.865-149.167-149.167-207.285 290.856 88.082 88.082c4.525.238 9.08.364 13.664.364 132.654 0 241.739-100.897 254.706-230.135z" fill="#0053bf"/><path d="m302.033 417.463h-92.066c-29.789 0-53.937-24.148-53.937-53.937v-174.512c0-14.922 6.182-29.177 17.075-39.375l46.033-43.095c20.74-19.416 52.984-19.416 73.724 0l46.033 43.095c10.893 10.198 17.075 24.453 17.075 39.375v174.513c0 29.788-24.148 53.936-53.937 53.936z" fill="#fa0"/><path d="m338.895 149.638-46.033-43.095c-10.475-9.807-23.886-14.652-37.267-14.552v325.472h46.438c29.789 0 53.937-24.148 53.937-53.937v-174.513c0-14.921-6.182-29.177-17.075-39.375z" fill="#ff9500"/><path d="m226.156 101c-.899.599-1.787 1.221-2.656 1.879v314.584h65v-314.584c-.87-.658-1.757-1.28-2.656-1.879z" fill="#ff9500"/><path d="m288.5 102.879c-.87-.658-1.757-1.28-2.656-1.879h-30.248v316.463h32.904z" fill="#fe6a16"/><path d="m302.033 445.463h-92.066c-45.18 0-81.937-36.757-81.937-81.937v-174.512c0-22.582 9.454-44.383 25.939-59.816l46.032-43.095c31.402-29.396 80.598-29.395 111.996 0l46.033 43.095c16.484 15.434 25.938 37.235 25.938 59.816v174.513c.002 45.18-36.755 81.936-81.935 81.936zm-46.033-325.458c-6.379 0-12.756 2.326-17.727 6.979l-46.032 43.094c-5.218 4.885-8.211 11.787-8.211 18.935v174.513c0 14.302 11.635 25.937 25.937 25.937h92.066c14.302 0 25.937-11.635 25.937-25.937v-174.512c0-7.148-2.993-14.05-8.211-18.936l-46.032-43.094c-4.97-4.652-11.349-6.979-17.727-6.979z" fill="#ffce00"/><path d="m358.031 129.198-46.033-43.095c-15.805-14.796-36.119-22.136-56.403-22.037v55.958c.135-.002.27-.019.405-.019 6.378 0 12.757 2.327 17.727 6.979l46.032 43.094c5.218 4.885 8.211 11.787 8.211 18.936v174.513c0 14.302-11.635 25.937-25.937 25.937h-46.438v56h46.438c45.18 0 81.937-36.757 81.937-81.937v-174.513c0-22.581-9.454-44.383-25.939-59.816z" fill="#fdba12"/><path d="m155 295.667c-8.468 0-15.333-6.865-15.333-15.333v-25.334c0-8.468 6.865-15.333 15.333-15.333 8.468 0 15.333 6.865 15.333 15.333v25.333c0 8.469-6.865 15.334-15.333 15.334z" fill="#fa0"/><path d="m355.97 295.667c-8.468 0-15.333-6.865-15.333-15.333v-25.334c0-8.468 6.865-15.333 15.333-15.333 8.468 0 15.333 6.865 15.333 15.333v25.333c.001 8.469-6.864 15.334-15.333 15.334z" fill="#ff9500"/></svg>