<svg id="Capa_1" enable-background="new 0 0 512 512" height="512" viewBox="0 0 512 512" width="512" xmlns="http://www.w3.org/2000/svg"><path d="m136.267 103.554h240.803v323.746h-240.803z" fill="#453e43"/><path d="m143.625 381.816h224.749v80.268h-224.749z" fill="#d57e4b"/><path d="m143.625 233.32h224.749v80.268h-224.749z" fill="#d57e4b"/><path d="m392.455 504.5c-28.064 0-50.815-22.751-50.815-50.815v-191.202c0-49.458-18.851-96.603-49.197-123.037-11.055-9.629-23.256-18.016-36.442-25.061-13.187 7.044-25.389 15.431-36.442 25.06-30.346 26.434-49.197 73.579-49.197 123.037v191.202c0 28.065-22.751 50.815-50.815 50.815s-50.815-22.751-50.815-50.815v-191.201c0-79.17 31.429-153.813 84.073-199.671 24.675-21.494 52.922-38.83 83.954-51.528 12.333-5.046 26.155-5.046 38.487 0 31.032 12.698 59.278 30.034 83.952 51.527 52.644 45.857 84.074 120.501 84.074 199.671v191.202c-.002 28.065-22.753 50.816-50.817 50.816z" fill="#1dd08d"/><path d="m107.646 453.685v-191.202c0-79.17 31.429-153.813 84.073-199.671 24.617-21.444 52.792-38.748 83.739-51.437-.072-.029-.143-.061-.215-.09-12.333-5.046-26.155-5.046-38.487 0-31.033 12.698-59.28 30.034-83.954 51.528-52.644 45.858-84.073 120.501-84.073 199.671v191.202c0 28.065 22.751 50.815 50.815 50.815 6.894 0 13.464-1.379 19.459-3.867-18.407-7.639-31.357-25.779-31.357-46.949z" fill="#02b07b"/><path d="m380.557 453.685v-191.202c0-49.458-20.148-95.184-49.197-123.037-34.6-33.174-62.174-18.016-75.36-25.061 13.186 7.045 25.388 15.431 36.442 25.061 30.346 26.434 49.197 73.578 49.197 123.037v191.202c0 28.065 22.751 50.815 50.815 50.815 6.894 0 13.464-1.379 19.459-3.867-18.407-7.638-31.356-25.778-31.356-46.948z" fill="#02b07b"/><path d="m405.21 104.612c-2.276-3.461-6.928-4.422-10.386-2.148-3.462 2.275-4.423 6.925-2.148 10.386 26.503 40.319 41.636 90.534 42.977 142.146h-86.671c-1.817-48.806-21.236-94.725-51.616-121.18-10.33-9.003-21.711-16.998-33.866-23.832v-94.306c3.017.535 6 1.384 8.9 2.569 30.254 12.379 57.8 29.283 81.868 50.24 7.363 6.416 14.413 13.533 20.958 21.151 2.699 3.142 7.433 3.502 10.576.803 3.142-2.699 3.502-7.434.803-10.576-7.013-8.164-14.576-15.797-22.484-22.688-25.312-22.041-54.261-39.81-86.042-52.813-14.236-5.82-29.915-5.819-44.155.001-31.78 13.002-60.728 30.771-86.042 52.814-54.245 47.259-86.633 124.003-86.639 205.292 0 .008-.001.016-.001.025 0 .007.001.013.001.019v156.744c0 .007-.001.013-.001.019s.001.013.001.019v34.385c0 32.156 26.157 58.317 58.307 58.317 26.642 0 49.152-17.966 56.094-42.414h160.716c6.94 24.448 29.446 42.414 56.085 42.414 32.157 0 58.317-26.161 58.317-58.317v-191.19c-.002-57.123-16.179-113.193-45.552-157.88zm-328.97 165.383h86.625v141.784h-86.625zm101.624-7.502c0-7.297.427-14.537 1.25-21.657h153.771c.822 7.116 1.25 14.351 1.25 21.643 0 .005-.001.011-.001.016 0 .007.001.013.001.019v43.586h-156.271zm171.272 7.502h86.625v141.784h-86.625zm-18.614-44.158h-149.043c6.583-33.034 21.839-62.276 43.011-80.714 9.603-8.369 20.188-15.813 31.511-22.164 11.323 6.351 21.908 13.795 31.512 22.166 21.171 18.436 36.426 47.677 43.009 80.712zm-172.791-157.347c24.071-20.96 51.616-37.863 81.869-50.241 2.901-1.186 5.883-2.034 8.901-2.57v94.306c-12.155 6.833-23.535 14.828-33.863 23.829-30.382 26.458-49.801 72.377-51.618 121.182h-86.68c1.906-74.212 32.023-143.497 81.391-186.506zm-38.183 428.511c-23.881 0-43.308-19.432-43.308-43.318v-26.905h86.625v26.905c0 23.885-19.431 43.318-43.317 43.318zm58.294-42.414c.005-.302.023-.601.023-.904v-64.356h19.159c4.142 0 7.5-3.358 7.5-7.5s-3.357-7.5-7.5-7.5h-19.159v-53.227h156.272v53.227h-107.115c-4.142 0-7.5 3.358-7.5 7.5s3.357 7.5 7.5 7.5h107.114v64.356c0 .303.018.602.023.904zm214.601 42.414c-23.88 0-43.307-19.432-43.307-43.318v-26.905h86.625v26.905c0 23.885-19.433 43.318-43.318 43.318z"/></svg>