<svg id="Capa_1" enable-background="new 0 0 512 512" height="512" viewBox="0 0 512 512" width="512" xmlns="http://www.w3.org/2000/svg"><path d="m152.313 7.512h-33.199c-5.947 0-10.768 4.821-10.768 10.768v69.033c0 5.947 4.821 10.768 10.768 10.768h33.199c5.947 0 10.768-4.821 10.768-10.768v-69.033c0-5.947-4.821-10.768-10.768-10.768z" fill="#fa2a3b"/><path d="m392.746 7.512h-33.199c-5.947 0-10.768 4.821-10.768 10.768v69.033c0 5.947 4.821 10.768 10.768 10.768h33.199c5.947 0 10.768-4.821 10.768-10.768v-69.033c0-5.947-4.821-10.768-10.768-10.768z" fill="#fa2a3b"/><path d="m163.076 18.282v32.9c0-5.95-4.82-10.77-10.77-10.77h-33.2c-5.94 0-10.76 4.82-10.76 10.77v-32.9c0-5.95 4.82-10.77 10.76-10.77h33.2c5.95 0 10.77 4.82 10.77 10.77z" fill="#c21925"/><path d="m403.506 18.282v32.9c0-5.95-4.82-10.77-10.76-10.77h-33.2c-5.95 0-10.77 4.82-10.77 10.77v-32.9c0-5.95 4.82-10.77 10.77-10.77h33.2c5.94 0 10.76 4.82 10.76 10.77z" fill="#c21925"/><path d="m472.326 294.207h-432.651v105.325c0 30.356 24.608 54.965 54.965 54.965h322.722c30.356 0 54.965-24.608 54.965-54.965v-105.325z" fill="#fa2a3b"/><path d="m461.496 266.84h-410.991c-23.751 0-43.004 19.254-43.004 43.004h497c-.001-23.75-19.255-43.004-43.005-43.004z" fill="#695e66"/><path d="m422.6 438.542c-2.15 32.55-27.87 58.61-60.37 61.4-70.82 6.09-141.64 6.09-212.46 0-32.66-2.8-58.25-29.12-60.39-61.83-4.93-75.1-5.83-150.2-2.69-225.3 1.35-32.79 3.48-65.59 6.39-98.38.22-2.61.46-5.21.7-7.82 108.15-14.2 216.3-14.2 324.45 0 .24 2.61.48 5.22.7 7.82 2.9 32.68 5.02 65.36 6.38 98.03 3.15 75.36 2.25 150.72-2.71 226.08z" fill="#d57e4b"/><path d="m425.31 212.462c-16.79 24.52-44.7 41.14-77.19 41.85-61.42 1.35-122.84 1.35-184.25 0-32.29-.71-60.29-17.17-77.18-41.5 1.35-32.79 3.48-65.59 6.39-98.38 3.28-1.22 6.8-1.93 10.45-2.06 101.65-3.7 203.29-3.7 304.94 0 3.66.13 7.17.85 10.46 2.06 2.9 32.68 5.02 65.36 6.38 98.03z" fill="#a95e2c"/><path d="m153.636 500.259c-1.29-.1-2.58-.21-3.87-.32-32.66-2.8-58.25-29.12-60.39-61.83-7.25-110.5-5.79-221 4.4-331.5 11.49-1.51 22.98-2.86 34.47-4.04-7.81 113.54-8.89 227.06-3.24 340.6 1.24 25.01 12.5 46.41 28.63 57.09z" fill="#a95e2c"/><path d="m408.466 78.16c-101.644-3.698-203.288-3.698-304.932 0-16.054.584-29.443 12.382-32.171 28.214-.174 1.01-.342 2.019-.503 3.029-9.16 57.303 34.992 109.429 93.008 110.704 61.416 1.35 122.833 1.35 184.249 0 58.687-1.29 102.403-54.449 92.754-112.352-.077-.46-.155-.921-.234-1.381-2.727-15.832-16.116-27.63-32.171-28.214z" fill="#695e66"/><path d="m176.724 220.36c-4.29-.08-8.57-.17-12.85-.26-58.02-1.27-102.17-53.4-93.01-110.7.16-1.01.33-2.02.5-3.03 2.73-15.83 16.12-27.63 32.17-28.21 14.53-.53 29.07-.98 43.6-1.35-5.62 5.32-9.73 14.69-10.89 25.94-.12 1.1-.22 2.19-.33 3.29-4.86 50.92 13.41 98.08 40.81 114.32z" fill="#453e43"/><g fill="#fa2a3b"><path d="m150.375 155.646h36.489v93.828h-36.489z"/><path d="m324.999 155.646h36.489v93.828h-36.489z"/><path d="m348.357 306.077c-61.571-3.693-123.142-3.693-184.714 0-11.25.675-20.466 9.23-21.848 20.415-4.459 36.1-4.459 72.199 0 108.299 1.382 11.185 10.598 19.74 21.848 20.415 61.571 3.693 123.142 3.693 184.714 0 11.25-.675 20.466-9.23 21.848-20.415 4.459-36.1 4.459-72.199 0-108.299-1.382-11.185-10.598-19.741-21.848-20.415z"/></g><path d="m176.866 322.86c-3.08 38.52-3.08 77.04 0 115.56.61 7.56 3.39 13.99 7.33 17.87-6.85-.31-13.7-.68-20.55-1.09-11.25-.67-20.47-9.23-21.85-20.41-4.46-36.1-4.46-72.2 0-108.3 1.38-11.19 10.6-19.74 21.85-20.42 6.85-.41 13.71-.77 20.56-1.09-3.941 3.88-6.731 10.32-7.34 17.88z" fill="#c21925"/><path d="m231.077 357.41h49.846v49.846h-49.846z" fill="#695e66" transform="matrix(.707 .707 -.707 .707 345.331 -69.037)"/><path d="m497.213 274.129c-9.535-9.536-22.218-14.787-35.713-14.787h-27.265c-.491-25.602-1.449-51.162-2.866-76.619 5.133-7.465 9.348-15.666 12.453-24.464 1.379-3.906-.67-8.19-4.576-9.569s-8.19.67-9.569 4.576c-2.878 8.154-6.871 15.706-11.766 22.51-.18.222-.348.454-.501.696-11.85 16.14-28.867 27.93-48.422 33.15v-53.974c0-4.142-3.358-7.5-7.5-7.5h-36.489c-4.142 0-7.5 3.358-7.5 7.5v57.503c-40.901.601-82.242.602-123.135 0v-57.503c0-4.142-3.358-7.5-7.5-7.5h-36.489c-4.142 0-7.5 3.358-7.5 7.5v53.95c-19.988-5.327-36.825-17.29-48.453-33.043-.1-.145-.205-.285-.315-.422-13.329-18.283-19.673-41.595-15.841-65.555.157-.987.323-1.974.484-2.93 2.12-12.294 12.655-21.542 25.052-21.99 100.989-3.677 203.403-3.677 304.396 0 12.395.448 22.93 9.696 25.052 22.001.071.406.142.813.204 1.219.005.035.011.07.017.105.944 5.669 1.351 11.42 1.211 17.094-.103 4.141 3.171 7.581 7.313 7.683 4.14.097 7.581-3.172 7.683-7.313.163-6.602-.308-13.288-1.4-19.873-.076-.496-.162-.992-.246-1.476-3.19-18.495-18.572-32.58-37.021-34.278v-52.538c0-10.074-8.191-18.27-18.26-18.27h-33.2c-10.074 0-18.27 8.196-18.27 18.27v50.488c-4.546-.092-9.092-.179-13.641-.256-13.169-27.604-40.786-45.183-71.709-45.183-30.924 0-58.542 17.579-71.711 45.185-4.548.077-9.094.165-13.64.257v-50.491c0-10.074-8.196-18.27-18.27-18.27h-33.2c-10.069 0-18.26 8.196-18.26 18.27v52.552c-18.388 1.757-33.699 15.817-36.886 34.293-.174 1.033-.348 2.067-.51 3.09-4.353 27.214 2.508 53.716 17.167 74.813-1.41 25.352-2.363 50.809-2.853 76.311h-27.268c-27.846 0-50.5 22.654-50.5 50.5 0 4.142 3.358 7.5 7.5 7.5h24.68v82.19c0 32.006 23.763 58.312 54.969 62.001 3.579 8.86 8.852 17.015 15.612 23.947 12.327 12.638 28.794 20.428 46.367 21.935 35.462 3.049 71.161 4.574 106.873 4.574 35.703 0 71.418-1.525 106.872-4.574 17.51-1.503 33.942-9.228 46.27-21.751 6.871-6.98 12.216-15.207 15.81-24.149 31.155-3.735 54.879-30.031 54.879-61.982v-82.19h24.67c4.142 0 7.5-3.358 7.5-7.5-.002-13.495-5.253-26.179-14.789-35.713zm-140.933-255.847c0-1.803 1.467-3.27 3.27-3.27h33.2c1.797 0 3.26 1.467 3.26 3.27v51.951c-13.224-.441-26.468-.82-39.73-1.135zm-100.35 20.05c22.474 0 42.797 11.442 54.47 29.923-36.293-.467-72.649-.466-108.941.002 11.673-18.482 31.997-29.925 54.471-29.925zm-136.82-23.32h33.2c1.803 0 3.27 1.467 3.27 3.27v50.819c-13.262.316-26.506.696-39.73 1.137v-51.956c0-1.803 1.462-3.27 3.26-3.27zm213.389 148.134h21.489v78.828h-21.489zm-174.624 0h21.489v78.828h-21.489zm-107.375 111.196h27.037c-.113 9.33-.159 18.664-.149 28h-37.708-23.883c3.452-15.986 17.701-28 34.703-28zm-3.32 125.19v-82.19h30.277c.328 40.513 1.798 81.016 4.439 121.26.151 2.311.416 4.604.78 6.875-20.55-5.277-35.496-23.817-35.496-45.945zm351.271 75.609c-9.821 9.977-22.912 16.131-36.864 17.329-70.063 6.025-141.112 6.025-211.177 0-13.989-1.199-27.098-7.401-36.912-17.463-9.808-10.056-15.716-23.332-16.635-37.386-5.187-79.018-5.876-159.042-2.075-238.154 13.09 12.322 29.505 21.37 48.087 25.568v24.44c0 4.142 3.358 7.5 7.5 7.5h36.489c4.142 0 7.5-3.358 7.5-7.5v-21.323c20.446.3 41 .458 61.563.458s41.121-.159 61.573-.458v21.323c0 4.142 3.358 7.5 7.5 7.5h36.489c4.142 0 7.5-3.358 7.5-7.5v-24.415c18.326-4.138 34.906-13.151 48.221-25.77 3.813 79.342 3.118 159.569-2.093 238.759-.922 13.936-6.84 27.109-16.666 37.092zm66.379-75.609c0 22.097-14.931 40.631-35.459 45.925.33-2.123.57-4.265.713-6.423 2.657-40.38 4.135-81.029 4.464-121.693h30.283v82.191zm7.5-97.19h-37.714c.01-9.335-.036-18.669-.149-28h27.033c9.488 0 18.404 3.691 25.106 10.394 4.899 4.899 8.19 10.982 9.605 17.606z"/><path d="m348.809 298.585c-61.583-3.691-124.033-3.691-185.622 0-14.888.9-27.014 12.25-28.831 26.987-4.515 36.541-4.515 73.597 0 110.138 1.82 14.745 13.948 26.091 28.83 26.978 8.233.499 16.763.938 25.353 1.307 4.156.163 7.637-3.034 7.814-7.172s-3.034-7.637-7.172-7.814c-8.501-.364-16.942-.799-25.095-1.293-7.667-.457-13.909-6.278-14.842-13.843-4.364-35.321-4.364-71.14 0-106.462.932-7.563 7.177-13.388 14.845-13.852 60.987-3.656 122.834-3.656 183.819 0 7.67.464 13.92 6.292 14.859 13.852 4.354 35.322 4.354 71.142.001 106.457-.941 7.568-7.188 13.392-14.856 13.849-42.845 2.569-86.219 3.346-128.919 2.308-4.138-.096-7.579 3.175-7.68 7.316s3.174 7.579 7.315 7.68c12.354.3 24.76.45 37.196.45 30.972 0 62.116-.93 92.982-2.781 14.882-.886 27.014-12.229 28.848-26.979 4.504-36.54 4.504-73.595-.001-110.142-1.831-14.737-13.96-26.084-28.844-26.984z"/><path d="m250.697 422.883c1.406 1.407 3.314 2.197 5.303 2.197s3.897-.79 5.303-2.197l35.247-35.247c2.929-2.929 2.929-7.678 0-10.606l-35.247-35.247c-1.406-1.407-3.314-2.197-5.303-2.197s-3.897.79-5.303 2.197l-35.246 35.247c-2.929 2.929-2.929 7.678 0 10.606zm5.303-65.19 24.64 24.64-24.64 24.641-24.64-24.64z"/></svg>