<svg id="Layer_1" enable-background="new 0 0 512 512" height="512" viewBox="0 0 512 512" width="512" xmlns="http://www.w3.org/2000/svg"><path d="m115.778 479.011 65.255-43.011-28.22-15h-57.188l-40.497 15c17.283 17.864 37.657 32.736 60.65 43.011z" fill="#725d57"/><path d="m98.789 346h-23.789c-24.814 0-45-20.186-45-45h-30c0 38.696 11.494 74.67 31.029 105l43.034 15h75l33.726-15z" fill="#725d57"/><path d="m182.789 406h-151.76c6.987 10.845 15.163 20.764 24.099 30h125.905l22.756-15z" fill="#76e2f8"/><path d="m396.224 479.013c22.993-10.274 43.367-25.148 60.652-43.013l-24.564-15h-65.625l-35.72 15z" fill="#53433f"/><path d="m512 301h-30c0 24.814-20.186 45-45 45h-23.789l-84 60 35.601 15h85.313l30.848-15c19.535-30.33 31.027-66.304 31.027-105z" fill="#53433f"/><path d="m370.789 346h-114.789-114.789l45 75-38.864 68.864c15.282 3.86 31.188 6.136 47.653 6.136h61 61c16.465 0 32.371-2.276 47.653-6.136l-38.864-68.864z" fill="#ff637b"/><path d="m364.653 489.864-38.864-68.864 45-75h-114.789v150h61c16.465 0 32.371-2.276 47.653-6.136z" fill="#e63950"/><path d="m480.973 406h-151.762l-21 15 22.756 15h125.909c8.936-9.236 17.111-19.155 24.097-30z" fill="#4bb9ec"/><path d="m42.457 16-6.709 13.418-6.709 13.418 335.405 167.71 6.704-13.405 6.714-13.431z" fill="#53433f"/><path d="m42.457 16-6.709 13.418 335.4 167.723 6.714-13.431z" fill="#3e322e"/><path d="m431.6 176.827-18.9-9.3-60.586 20.096-.013.004 20.1 60.3 19.2 9.6 34.77-9.574 6.517-20.038 7.646-23.509z" fill="#53433f"/><path d="m431.6 176.827-18.9-9.3-60.586 20.096 80.574 40.292 7.646-23.509z" fill="#3e322e"/><path d="m476.252 29.418-6.709-13.418-335.405 167.71 6.714 13.431 6.704 13.405 335.405-167.71z" fill="#725d57"/><path d="m482.961 42.836-6.709-13.418-335.4 167.723 6.704 13.405z" fill="#53433f"/><path d="m159.886 187.623-60.586-20.096-18.9 9.3-5.931 33.208 4.369 18.118 2.692 11.166 39.069 18.208 19.2-9.6 20.1-60.3z" fill="#725d57"/><path d="m120.599 257.527 19.2-9.6 20.1-60.3-.013-.004-81.048 40.53 2.692 11.166z" fill="#53433f"/><path d="m100.556 217.292-20.156-40.465-80.4 40.499 20.099 40.199 20.1 40.201 80.4-40.199z" fill="#ffda2d"/><path d="m120.599 257.527-20.043-40.235-80.457 40.233 20.1 40.201z" fill="#fdbf00"/><path d="m431.6 176.827-20.156 40.465-20.043 40.235 80.4 40.199 20.1-40.201 20.099-40.199z" fill="#fdbf00"/><path d="m431.6 176.827-20.156 40.465 80.457 40.233 20.099-40.199z" fill="#ff9100"/><path d="m413.211 346h-42.422l-75 75 68.864 68.864c10.911-2.758 21.475-6.339 31.571-10.851l-58.013-58.013z" fill="#fdbf00"/><path d="m141.211 346h-42.422l75 75-58.011 58.011c10.096 4.512 20.658 8.095 31.569 10.853l69.864-68.864z" fill="#ffda2d"/></svg>