<svg height="511pt" viewBox="0 -40 511.99986 511" width="511pt" xmlns="http://www.w3.org/2000/svg"><path d="m345.109375 33.324219c-4.144531 0-7.5-3.359375-7.5-7.5v-17.824219c0-4.140625 3.355469-7.5 7.5-7.5 4.140625 0 7.5 3.359375 7.5 7.5v17.824219c0 4.140625-3.359375 7.5-7.5 7.5zm0 0" fill="#4e5660"/><path d="m322.140625 143.773438h45.9375v194.246093h-45.9375zm0 0" fill="#e1b89a"/><path d="m322.140625 143.773438h45.9375v70.113281h-45.9375zm0 0" fill="#d2996f"/><path d="m345.109375 25.824219c-81.605469 0-146.914063 47.65625-165.628906 106.171875-5.398438 16.875 7.175781 34.128906 24.894531 34.128906h58.515625c13.679687 0 25.066406-10.539062 26.0625-24.179688 2.757813-37.769531 13.859375-94.050781 56.15625-116.121093zm0 0" fill="#89d47f"/><path d="m345.109375 25.824219c81.605469 0 146.914063 47.65625 165.628906 106.171875 5.394531 16.875-7.179687 34.128906-24.898437 34.128906h-58.515625c-13.675781 0-25.066407-10.539062-26.0625-24.179688-2.753907-37.769531-13.855469-94.050781-56.152344-116.121093zm0 0" fill="#e26e7e"/><path d="m400.933594 137.816406c-3.261719-37.628906-15.042969-90.710937-55.824219-111.992187-40.78125 21.28125-52.566406 74.363281-55.828125 111.992187-1.320312 15.238282 10.757812 28.308594 26.050781 28.308594h59.554688c15.292969 0 27.367187-13.070312 26.046875-28.308594zm0 0" fill="#f7ef87"/><path d="m315.332031 166.125h33.371094c-28.835937-17.179688-43.835937-50.125-48.519531-82.652344-6.410156 18.433594-9.472656 37.871094-10.902344 54.34375-1.320312 15.238282 10.757812 28.308594 26.050781 28.308594zm0 0" fill="#efd176"/><path d="m399.851562 370.394531h37.273438l23.640625 52.953125c1.679687 3.757813-1.074219 8-5.191406 8h-25.53125c-3.519531 0-6.683594-2.144531-7.988281-5.410156zm0 0" fill="#4e5660"/><path d="m230.730469 370.394531h-37.269531l-23.644532 52.953125c-1.675781 3.757813 1.074219 8 5.191406 8h25.53125c3.519532 0 6.683594-2.144531 7.988282-5.410156zm0 0" fill="#4e5660"/><path d="m468.9375 389.820312h-279.726562c-17.089844 0-33.15625-6.65625-45.242188-18.742187l-136.382812-136.378906c-10.113282-10.117188-10.113282-26.515625 0-36.628907 10.113281-10.117187 26.515624-10.117187 36.628906 0l136.382812 136.378907c2.300782 2.300781 5.359375 3.570312 8.613282 3.570312h279.726562c14.304688 0 25.902344 11.59375 25.902344 25.902344 0 14.300781-11.597656 25.898437-25.902344 25.898437zm0 0" fill="#8eafe2"/><path d="m242.738281 338.019531h-53.527343c-3.253907 0-6.3125-1.269531-8.613282-3.570312l-136.382812-136.378907c-10.113282-10.117187-26.515625-10.117187-36.628906 0-10.113282 10.113282-10.113282 26.511719 0 36.628907l136.382812 136.378906c12.082031 12.085937 28.152344 18.742187 45.242188 18.742187h66.457031c-9.03125-12.070312-16.382813-32.695312-12.929688-51.800781zm0 0" fill="#6a96d7"/><path d="m351.117188 380.644531c-4.144532 0-8.285157-1.578125-11.445313-4.742187l-71.726563-71.726563c-.960937-.957031-2.234374-1.488281-3.59375-1.488281h-168.332031c-8.941406 0-16.1875-7.246094-16.1875-16.1875s7.246094-16.1875 16.1875-16.1875h168.332031c10.003907 0 19.410157 3.894531 26.484376 10.96875l71.730468 71.730469c6.320313 6.320312 6.320313 16.570312 0 22.890625-3.164062 3.160156-7.308594 4.742187-11.449218 4.742187zm0 0" fill="#a3defe"/><path d="m204.375 166.125h58.515625c13.679687 0 25.066406-10.539062 26.0625-24.179688 1.261719-17.289062 4.285156-38.453124 11.238281-58.445312-2.722656-18.875-1.976562-37.597656 1.5625-53.019531-60.78125 13.328125-107.015625 53.808593-122.273437 101.511719-5.398438 16.878906 7.175781 34.132812 24.894531 34.132812zm0 0" fill="#5ec783"/></svg>