<svg id="Capa_1" data-name="Capa 1" xmlns="http://www.w3.org/2000/svg" viewBox="0 0 294.84 294.84"><defs><style>.cls-1{fill:#fff;}</style></defs><title>anx_w</title><path class="cls-1" d="M147.42,0C66.13,0,0,66.13,0,147.42S66.13,294.84,147.42,294.84a146.73,146.73,0,0,0,102.16-41.13,6,6,0,1,0-8.32-8.65,134.78,134.78,0,0,1-93.84,37.78C72.75,282.84,12,222.09,12,147.42S72.75,12,147.42,12,282.84,72.75,282.84,147.42a134.88,134.88,0,0,1-9.07,48.84A6,6,0,1,0,285,200.58a146.63,146.63,0,0,0,9.88-53.16C294.84,66.13,228.71,0,147.42,0Z" transform="translate(0 0)"/><path class="cls-1" d="M167.62,160.13a6,6,0,0,0-8.4,8.58l47.24,46.23a6,6,0,0,0,8.39-8.57Z" transform="translate(0 0)"/><path class="cls-1" d="M125.18,133.66a6,6,0,1,0,8.48-8.48L88.43,79.94a6,6,0,0,0-8.49,8.49Z" transform="translate(0 0)"/><path class="cls-1" d="M214.9,79.94a6,6,0,0,0-8.49,0L79.94,206.41a6,6,0,1,0,8.49,8.49L214.9,88.43A6,6,0,0,0,214.9,79.94Z" transform="translate(0 0)"/></svg>