<svg id="Capa_1" data-name="Capa 1" xmlns="http://www.w3.org/2000/svg" viewBox="0 0 294.84 294.84"><defs><style>.cls-1{fill:#fff;}</style></defs><title>burgermenu_w</title><path class="cls-1" d="M147.42,0C66.13,0,0,66.13,0,147.42A147.9,147.9,0,0,0,47.35,255.68a6,6,0,0,0,8.15-8.81A135.85,135.85,0,0,1,12,147.42C12,72.75,72.75,12,147.42,12S282.84,72.75,282.84,147.42,222.09,282.84,147.42,282.84a6,6,0,0,0,0,12c81.29,0,147.42-66.13,147.42-147.42S228.71,0,147.42,0Z" transform="translate(0 0)"/><path class="cls-1" d="M84.18,90.18H210.66a6,6,0,1,0,0-12H84.18a6,6,0,0,0,0,12Z" transform="translate(0 0)"/><path class="cls-1" d="M84.18,153.42H210.66a6,6,0,0,0,0-12H84.18a6,6,0,0,0,0,12Z" transform="translate(0 0)"/><path class="cls-1" d="M216.66,210.66a6,6,0,0,0-6-6H84.18a6,6,0,0,0,0,12H210.66A6,6,0,0,0,216.66,210.66Z" transform="translate(0 0)"/></svg>