<svg height="512pt" viewBox="-54 0 512 512.00125" width="512pt" xmlns="http://www.w3.org/2000/svg"><path d="m169.46875 420.292969 8.800781-8.804688c2.929688-2.929687 2.929688-7.675781 0-10.609375-2.925781-2.929687-7.675781-2.925781-10.605469 0l-8.804687 8.808594c-2.929687 2.925781-2.929687 7.675781 0 10.605469 2.929687 2.929687 7.679687 2.929687 10.609375 0zm0 0"/><path d="m91.816406 353.242188c2.929688 2.929687 7.679688 2.925781 10.605469 0l8.804687-8.804688c2.929688-2.929688 2.929688-7.679688 0-10.609375-2.929687-2.929687-7.675781-2.929687-10.605468 0l-8.804688 8.804687c-2.929687 2.929688-2.929687 7.679688 0 10.609376zm0 0"/><path d="m123.378906 388.726562c5.046875 5.050782 12.234375 7.199219 19.222656 5.75 4.058594-.839843 6.664063-4.808593 5.824219-8.863281-.308593-1.488281-2.75-6.984375-8.863281-5.824219-2.933594.554688-4.875-.964843-5.578125-1.667968s-2.273437-2.65625-1.667969-5.578125c.839844-4.058594-1.765625-8.027344-5.824218-8.867188-4.054688-.839843-8.023438 1.769531-8.863282 5.824219-1.449218 6.992188.703125 14.179688 5.75 19.226562zm0 0"/><path d="m338.378906 210 37.148438-37.152344c8.875-8.875 15.929687-19.160156 20.96875-30.558594 1.675781-3.789062-.035156-8.21875-3.828125-9.894531-3.785157-1.675781-8.214844.039063-9.890625 3.828125-4.289063 9.699219-10.296875 18.453125-17.855469 26.015625l-35.574219 35.578125c-2.25-2.664062-12.421875-12.835937-15.085937-15.089844l35.574219-35.574218c25.3125-25.320313 25.3125-66.519532 0-91.839844-25.316407-25.320312-66.507813-25.320312-91.824219 0-4.160157 4.160156-10.929688 4.160156-15.085938 0-4.160156-4.160156-4.160156-10.929688 0-15.085938 33.632813-33.640624 88.359375-33.640624 121.996094 0 17.640625 17.644532 26.757813 42.097657 25.007813 67.085938-.289063 4.136719 2.828124 7.71875 6.960937 8.007812 4.128906.289063 7.714844-2.824218 8.003906-6.957031 2.054688-29.328125-8.652343-58.027343-29.367187-78.746093-39.480469-39.488282-103.726563-39.488282-143.207032 0-10.011718 10.007812-10.011718 26.296874 0 36.304687 10.003907 10.007813 26.289063 10.007813 36.296876 0 19.46875-19.46875 51.144531-19.46875 70.609374 0 19.46875 19.46875 19.46875 51.152344 0 70.621094l-37.144531 37.152343c-82.761719-53.359374-199.050781 25.265626-258.515625 84.738282-36.332031 36.335937-51.210937 87.984375-39.800781 138.152344.917969 4.039062 4.9375 6.570312 8.976563 5.648437 4.039062-.917969 6.570312-4.9375 5.652343-8.976563-1.980469-8.703124-3.070312-17.453124-3.320312-26.148437 4.785156-2.707031 37.492187-11.597656 69.304687-47.449219 18.503906-20.851562 21.421875-50.925781 8.703125-84.886718 4.644531-3.640626 9.59375-7.375 14.8125-11.128907l180.546875 180.570313c-3.753906 5.222656-7.488281 10.167968-11.132812 14.8125-33.953125-12.71875-64.136719-9.925782-84.875 8.707031-36.023438 32.367187-44.695313 64.464844-47.382813 69.21875-33.003906-.871094-65.746093-13.871094-90.878906-39.007813-10.65625-10.65625-19.351563-22.875-25.84375-36.308593-1.800781-3.734375-6.285156-5.292969-10.015625-3.488281-3.730469 1.800781-5.292969 6.289062-3.488281 10.015624 7.222656 14.953126 16.894531 28.542969 28.742187 40.390626 57.921875 57.929687 152.167969 57.929687 210.089844 0 59.460938-59.476563 138.074219-175.78125 84.722656-258.554688zm-265.265625 99.757812c-24.238281 26.804688-55.226562 38.675782-57.394531 39.851563 3.089844-30.042969 16.34375-58.457031 38.453125-80.570313 4.796875-4.796874 14.023437-13.683593 26.566406-24.234374 11.140625 33.402343 2.488281 53.765624-7.625 64.953124zm47.320313-94.785156c16.617187-11.039062 35.355468-21.675781 55.269531-29.835937 56.65625-23.222657 102.351563-18.03125 135.808594 15.433593 33.457031 33.460938 38.648437 79.160157 15.429687 135.828126-8.160156 19.914062-18.796875 38.652343-29.832031 55.273437zm42.128906 281.300782c1.148438-2.125 16.007812-37.265626 39.777344-57.273438 11.535156-9.710938 31.542968-18.769531 64.941406-7.625-10.550781 12.542969-19.433594 21.769531-24.234375 26.570312-22.492187 22.492188-51.074219 35.261719-80.484375 38.328126zm0 0"/><path d="m287.375 224.707031c-14.71875-14.71875-38.664062-14.71875-53.382812 0l-12.558594 12.5625c-14.71875 14.71875-14.71875 38.671875 0 53.390625 14.714844 14.71875 38.664062 14.71875 53.382812 0l12.558594-12.5625c14.71875-14.71875 14.71875-38.671875 0-53.390625zm-23.167969 55.34375c-8.867187 8.871094-23.296875 8.871094-32.167969 0-8.871093-8.871093-8.871093-23.304687 0-32.175781l12.558594-12.558594c8.871094-8.871094 23.300782-8.871094 32.171875 0 8.867188 8.867188 8.867188 23.300782 0 32.171875zm0 0"/></svg>