<svg id="Layer_1" data-name="Layer 1" xmlns="http://www.w3.org/2000/svg" viewBox="0 0 405.14 512"><defs><style>.cls-1{fill:#fff;}</style></defs><title>mouse_w</title><path class="cls-1" d="M223.47,420.29l8.8-8.8a7.5,7.5,0,0,0-10.61-10.61l-8.8,8.81a7.5,7.5,0,0,0,10.61,10.6Z" transform="translate(-54 0)"/><path class="cls-1" d="M145.82,353.24a7.49,7.49,0,0,0,10.6,0l8.81-8.8a7.5,7.5,0,1,0-10.61-10.61l-8.8,8.8A7.5,7.5,0,0,0,145.82,353.24Z" transform="translate(-54 0)"/><path class="cls-1" d="M177.38,388.73a21,21,0,0,0,19.22,5.75,7.5,7.5,0,0,0,5.83-8.87c-.31-1.49-2.75-7-8.87-5.82a6.23,6.23,0,0,1-5.58-1.67,6.07,6.07,0,0,1-1.66-5.58,7.5,7.5,0,0,0-14.69-3A21.07,21.07,0,0,0,177.38,388.73Z" transform="translate(-54 0)"/><path class="cls-1" d="M392.38,210l37.15-37.15a100.75,100.75,0,0,0,21-30.56,7.5,7.5,0,1,0-13.72-6.07,85.71,85.71,0,0,1-17.86,26l-35.57,35.58c-2.25-2.67-12.42-12.84-15.09-15.09l35.58-35.58A64.94,64.94,0,0,0,312,55.31a10.66,10.66,0,0,1-15.08-15.08,86.22,86.22,0,0,1,147,67.08,7.5,7.5,0,0,0,15,1A101.23,101.23,0,0,0,286.32,29.62a25.67,25.67,0,0,0,36.3,36.3,49.93,49.93,0,0,1,70.61,70.62L356.08,173.7C273.32,120.34,157,199,97.57,258.43a147.93,147.93,0,0,0-39.8,138.16,7.5,7.5,0,0,0,14.63-3.33,134.71,134.71,0,0,1-3.33-26.15c4.79-2.71,37.5-11.6,69.31-47.45,18.5-20.85,21.42-50.93,8.7-84.89,4.65-3.64,9.6-7.37,14.82-11.13L342.44,404.21c-3.75,5.23-7.49,10.17-11.13,14.82-33.95-12.72-64.14-9.93-84.88,8.7-36,32.37-44.69,64.47-47.38,69.22A133.55,133.55,0,0,1,82.33,421.64a7.5,7.5,0,0,0-13.51,6.52,148.05,148.05,0,0,0,28.75,40.39c57.92,57.93,152.16,57.93,210.09,0C367.12,409.08,445.73,292.77,392.38,210ZM127.11,309.76c-24.23,26.8-55.22,38.67-57.39,39.85A132.93,132.93,0,0,1,108.17,269c4.8-4.8,14-13.68,26.57-24.24C145.88,278.21,137.23,298.57,127.11,309.76ZM174.43,215a321.59,321.59,0,0,1,55.27-29.83c56.66-23.23,102.36-18,135.81,15.43s38.65,79.16,15.43,135.83a321.59,321.59,0,0,1-29.83,55.27Zm42.13,281.3c1.15-2.12,16-37.26,39.78-57.27,11.54-9.71,31.54-18.77,64.94-7.63-10.55,12.55-19.43,21.77-24.23,26.58A132.92,132.92,0,0,1,216.56,496.27Z" transform="translate(-54 0)"/><path class="cls-1" d="M341.38,224.71a37.79,37.79,0,0,0-53.39,0l-12.56,12.56a37.75,37.75,0,1,0,53.39,53.39l12.56-12.56A37.81,37.81,0,0,0,341.38,224.71Zm-23.17,55.34A22.75,22.75,0,1,1,286,247.87l12.56-12.55a22.75,22.75,0,0,1,32.17,32.17Z" transform="translate(-54 0)"/></svg>