<svg viewBox="0 0 512 512" xmlns="http://www.w3.org/2000/svg"><g fill="#fff"><path d="m310 190a10 10 0 1 0 10 10 10 10 0 0 0 -10-10z"/><path d="m500.28 443.72-133.48-133.48a198.2 198.2 0 0 0 33.2-110.24c0-110.28-89.72-200-200-200s-200 89.72-200 200 89.72 200 200 200a198.23 198.23 0 0 0 110.24-33.2l36.89 36.9 96.57 96.57a40 40 0 1 0 56.56-56.56zm-194.74-98a178.42 178.42 0 0 1 -105.54 34.28c-99.25 0-180-80.75-180-180s80.75-180 180-180 180 80.75 180 180a178.44 178.44 0 0 1 -34.27 105.53 181 181 0 0 1 -40.19 40.2zm21 9.06a200.36 200.36 0 0 0 28.27-28.27l28.37 28.37a241.92 241.92 0 0 1 -28.27 28.27zm159.6 131.36a20 20 0 0 1 -28.28 0l-88.79-88.8a263.84 263.84 0 0 0 28.27-28.27l88.8 88.79a20 20 0 0 1 0 28.28z"/><path d="m200 40c-88.22 0-160 71.77-160 160s71.78 160 160 160 160-71.78 160-160-71.77-160-160-160zm0 300c-77.2 0-140-62.8-140-140s62.8-140 140-140 140 62.8 140 140-62.8 140-140 140z"/><path d="m312.07 157.07a120.19 120.19 0 0 0 -112.07-77.07 10 10 0 0 0 0 20 100.69 100.69 0 0 1 93.4 64.25 10 10 0 0 0 9.33 6.41 9.87 9.87 0 0 0 3.59-.67 10 10 0 0 0 5.75-12.92z"/></g></svg>