<svg height="512" viewBox="0 0 64 64" width="512" xmlns="http://www.w3.org/2000/svg"><g id="Fill_Outline" data-name="Fill Outline"><path d="m49 27a5 5 0 0 0 -5 5 4 4 0 1 0 3.9 4.87 4.94 4.94 0 0 0 1.1.13 5 5 0 0 0 0-10z" fill="#7ab92d"/><path d="m16 25 .68 1.53a74.64 74.64 0 0 1 6.32 34.47h18a74.64 74.64 0 0 1 6.32-34.47l.68-1.53z" fill="#e1ff85"/><path d="m21.72 25h-5.72a81.12 81.12 0 0 1 7 33v3h18c-.07-1.33-.11-2.67-.11-4l-5-.57a10.36 10.36 0 0 1 -9.09-9.52 73.8 73.8 0 0 0 -1-7.42 4.62 4.62 0 0 0 .12-1 4.42 4.42 0 0 0 -.86-2.62c-.1-.45-.22-.89-.33-1.34a4 4 0 0 0 2.27-3.53 4.18 4.18 0 0 0 -.07-.72 11.9 11.9 0 0 0 10.19-1v.17a4 4 0 1 0 5 6 7.46 7.46 0 0 0 1.76.45 73.66 73.66 0 0 1 3.43-9.38l.69-1.52z" fill="#c4f236"/><path d="m22.68 25.53a74.49 74.49 0 0 1 5.77 20.47 1.71 1.71 0 0 0 1.71-1.83 139.88 139.88 0 0 0 -2.66-18.64z" fill="#c4f236"/><path d="m36.5 25.53a139.88 139.88 0 0 0 -2.66 18.64 1.71 1.71 0 0 0 1.71 1.83 74.49 74.49 0 0 1 5.77-20.47z" fill="#c4f236"/><path d="m53 16a9 9 0 0 0 -12.49-8.3 12 12 0 0 0 -16.8-2.22 8.13 8.13 0 0 0 -2.71-.48 8 8 0 0 0 -7.74 6h-.26a10 10 0 0 0 -3.94 19.19 5.52 5.52 0 0 0 -.06.81 6 6 0 0 0 6 6 5.83 5.83 0 0 0 2.47-.54 4.49 4.49 0 1 0 6.62-5.63 4 4 0 0 0 2.91-3.83 4.18 4.18 0 0 0 -.07-.72 11.9 11.9 0 0 0 10.19-1v.17a4 4 0 1 0 5 6 7.93 7.93 0 0 0 6.88-.53 8 8 0 1 0 4-14.92z" fill="#a1d51c"/><g fill="#7ab92d"><path d="m24.5 36a4.48 4.48 0 0 1 -4-2.54 5.83 5.83 0 0 1 -2.5.54 6 6 0 0 1 -6-6 5.52 5.52 0 0 1 .06-.81 10 10 0 0 1 -4.47-14.6 10 10 0 0 0 1.47 17.6 5.52 5.52 0 0 0 -.06.81 6 6 0 0 0 6 6 5.83 5.83 0 0 0 2.47-.54 4.47 4.47 0 0 0 8.32-.67 4.58 4.58 0 0 1 -1.29.21z"/><path d="m56 29a8 8 0 0 1 -4-1.08 7.93 7.93 0 0 1 -6.87.54 4 4 0 0 1 -7.13-2.46 3.89 3.89 0 0 1 .3-1.49 11.15 11.15 0 0 1 -1.18.81v.16a4 4 0 1 0 5 6 7.93 7.93 0 0 0 6.88-.56 8 8 0 0 0 11-3 7.9 7.9 0 0 1 -4 1.08z"/><path d="m31 23a46.43 46.43 0 0 1 -9.74-1 12 12 0 0 0 19.48 0 46.43 46.43 0 0 1 -9.74 1z"/><path d="m13 21a12.91 12.91 0 0 1 -4.43-.78 4 4 0 0 0 7.77.34 13 13 0 0 1 -3.34.44z"/><path d="m53 16a9 9 0 0 1 -4.11 7.55 2.07 2.07 0 0 0 2.25.37 13.07 13.07 0 0 0 6.59-6.37 8 8 0 0 0 -4.73-1.55z"/></g><path d="m62 24a9 9 0 0 0 -8-8.95v-.14a10 10 0 0 0 -10-8.91 1 1 0 0 0 0 2 8 8 0 0 1 8 7.1 8 8 0 0 1 -2.29 6.55 1 1 0 0 0 0 1.41 1 1 0 0 0 1.41 0 10 10 0 0 0 2.87-6 7 7 0 0 1 -.99 13.94 7.09 7.09 0 0 1 -3.5-.94 1 1 0 0 0 -1 0 7 7 0 0 1 -6 .47 1 1 0 0 0 -1.14.31 3 3 0 0 1 -5.36-1.32 1 1 0 0 0 -1.15-.81 1 1 0 0 0 -.82 1.16 5 5 0 0 0 3.16 3.81 75.76 75.76 0 0 0 -2.68 12.19 1 1 0 0 0 .9 1.13h.14a1 1 0 0 0 1-.87 73.24 73.24 0 0 1 2.68-12.13 5 5 0 0 0 3.2-1.36 10.77 10.77 0 0 0 1.37.29 75.31 75.31 0 0 0 -3.8 28.13 1 1 0 0 0 1 .94h.06a1 1 0 0 0 .94-1.06 73.07 73.07 0 0 1 1.64-20l.36.06a5 5 0 0 0 4.59-3 6 6 0 0 0 6.35-5.2 9 9 0 0 0 7.06-8.8zm-13 12a3.48 3.48 0 0 1 -.88-.11 1.07 1.07 0 0 0 -.76.13 1.05 1.05 0 0 0 -.44.63 3 3 0 0 1 -2.83 2.35c.51-2 1.12-4.05 1.8-6.05a8.88 8.88 0 0 0 3.11-.89 9.06 9.06 0 0 0 3.86.93 4 4 0 0 1 -3.86 3.01z" fill="#39519d"/><path d="m28 27.62a12.94 12.94 0 0 0 12.23-3.43 1 1 0 1 0 -1.41-1.41 11 11 0 0 1 -15.56 0 1 1 0 0 0 -1.41 1.41 12.89 12.89 0 0 0 4.15 2.81 3 3 0 0 1 -2.18 2.87 1 1 0 0 0 -.71.79 1 1 0 0 0 .4 1 3.49 3.49 0 0 1 1.49 2.83v.06a3.51 3.51 0 0 1 -3.5 3.45 2.83 2.83 0 0 1 -.41 0 3.45 3.45 0 0 1 -2.72-2 1 1 0 0 0 -1.8.88 5.44 5.44 0 0 0 3.54 2.91 73.67 73.67 0 0 1 1.89 21.15 1 1 0 0 0 .94 1.06h.06a1 1 0 0 0 1-.94 76.08 76.08 0 0 0 -1.81-21.06 5.45 5.45 0 0 0 3.67-2.11 71.24 71.24 0 0 1 1.6 8.29 1 1 0 0 0 1 .87h.14a1 1 0 0 0 .86-1.12 77.43 77.43 0 0 0 -2.46-11.53 5.47 5.47 0 0 0 -1.17-3.28 5 5 0 0 0 2.17-3.5z" fill="#39519d"/><path d="m14.23 35.94a5 5 0 0 1 -4.18-4.35 11.14 11.14 0 0 0 2.95.41 11 11 0 0 0 5.49-1.48 1 1 0 1 0 -1-1.74 8.88 8.88 0 0 1 -8 .48 9 9 0 0 1 3.58-17.26h.16a1 1 0 0 0 1-.75 7 7 0 0 1 9.14-4.84 7.15 7.15 0 0 1 1.12.52 7 7 0 0 1 2.56 9.56 1 1 0 0 0 .37 1.37 1 1 0 0 0 1.36-.37 9 9 0 0 0 -3.05-12.13 10.93 10.93 0 0 1 13.19 2 9.82 9.82 0 0 0 -2 1.54 1 1 0 0 0 1.41 1.41 8 8 0 0 1 2.57-1.68 1 1 0 0 0 .57-1.22 1 1 0 0 0 -.17-.32 13 13 0 0 0 -17.76-2.72 9.24 9.24 0 0 0 -2.54-.37 9 9 0 0 0 -8.48 6 11 11 0 0 0 -4.52 20.8v.2a7.05 7.05 0 0 0 5.93 6.92h.15a1 1 0 0 0 .15-2z" fill="#39519d"/><path d="m15.5 19.5a3 3 0 0 1 -6 0 1 1 0 0 0 -2 0 5 5 0 0 0 10 0 1 1 0 0 0 -2 0z" fill="#39519d"/></g></svg>