<svg enable-background="new 0 0 512 512" viewBox="0 0 512 512" xmlns="http://www.w3.org/2000/svg"><path d="m505.023 19.553c14.691 14.691 6.311 44.144-26.369 92.711-27.768 41.251-69.82 90.739-118.423 139.329-75.319 75.319-150.016 132.134-192.869 147.506 3.55 21.719-3.61 45.483-20.476 63.616-1.375 1.458-8.415 8.81-17.727 15.456-19.855 14.177-42.375 21.253-64.082 21.253-22.52 0-44.168-7.614-61.094-22.783-4.853-4.339-5.331-11.75-1.1-16.687 13.185-15.336 22.831-33.494 27.923-52.523.932-4.16 7.339-28.856 31.557-46.14 16.866-12.037 37.355-16.819 56.229-13.077 3.215.634 6.323 1.506 9.336 2.582 18.229-43.666 73.012-114.407 145.055-186.45 48.603-48.603 98.078-90.655 139.329-118.423 48.567-32.682 78.021-41.061 92.711-26.37zm-49.869 84.714c33.159-47.909 33.219-64.453 32.776-67.621-3.168-.442-19.711-.383-67.621 32.776-38.92 26.919-85.24 66.641-130.424 111.825-18.337 18.337-35.717 36.853-51.663 54.878l50.264 50.252c17.476-15.456 35.872-32.717 54.842-51.687 45.185-45.183 84.906-91.503 111.826-130.423zm-184.801 197.794-47.802-47.802c-8.427 9.969-16.34 19.711-23.656 29.131l42.303 42.291c9.288-7.183 19.031-15.072 29.155-23.62zm-48.495 38.084-37.462-37.45c-17.452 24.146-29.979 45.172-35.801 60.724 6.754 5.475 10.376 12.838 10.627 13.244 14.691-5.188 36.279-17.548 62.636-36.518zm-92.46 106.266c15.707-16.878 19.436-41.395 8.834-58.273-5.391-8.595-14.021-14.452-24.266-16.472-12.444-2.462-26.19.849-37.713 9.085-17.93 12.802-22.078 31.736-22.126 31.928-.036.215-.096.418-.143.634-4.937 18.564-13.519 36.422-25.066 52.249 24.66 15.253 58.62 12.958 86.352-6.837 7.625-5.452 13.482-11.62 14.128-12.314z" fill="#1e0478"/><path d="m487.93 36.646c.442 3.168.383 19.711-32.776 67.621-26.919 38.92-66.641 85.24-111.825 130.424-18.97 18.97-37.366 36.231-54.842 51.687l-50.264-50.252c15.946-18.026 33.326-36.542 51.663-54.878 45.184-45.184 91.504-84.905 130.424-111.825 47.909-33.159 64.452-33.219 67.62-32.777z" fill="#9b8ccc"/><path d="m222.551 254.259 47.802 47.802c-10.125 8.547-19.867 16.436-29.154 23.62l-42.303-42.291c7.315-9.42 15.228-19.161 23.655-29.131z" fill="#fff"/><path d="m184.396 302.694 37.462 37.45c-26.357 18.97-47.945 31.33-62.636 36.518-.251-.406-3.873-7.77-10.627-13.244 5.822-15.551 18.349-36.578 35.801-60.724z" fill="#9b8ccc"/><path d="m138.232 388.138c10.603 16.878 6.873 41.395-8.834 58.273-.645.693-6.503 6.861-14.129 12.312-27.732 19.795-61.692 22.09-86.352 6.837 11.547-15.826 20.13-33.685 25.066-52.249.048-.215.108-.418.143-.634.048-.191 4.196-19.126 22.126-31.928 11.523-8.236 25.27-11.547 37.713-9.085 10.245 2.022 18.876 7.879 24.267 16.474zm-14.261 42.219c3.18-5.785 1.064-13.053-4.71-16.233-5.785-3.192-13.053-1.076-16.245 4.698-.323.586-.705 1.136-1.159 1.626-.885.932-3.825 3.777-6.873 5.953-4.638 3.311-9.634 5.678-14.858 7.041-6.383 1.673-10.208 8.2-8.535 14.595 1.411 5.367 6.252 8.929 11.559 8.929.992 0 2.02-.131 3.024-.394 8.057-2.104 15.695-5.714 22.7-10.71 4.494-3.215 10.471-9.097 10.507-9.144 1.781-1.926 3.323-4.064 4.59-6.361z" fill="#94e7ef"/><path d="m119.261 414.126c5.774 3.18 7.889 10.447 4.71 16.233-1.267 2.295-2.809 4.435-4.59 6.359-.036.048-6.013 5.929-10.507 9.144-7.005 4.997-14.643 8.607-22.7 10.71-1.004.263-2.032.394-3.024.394-5.307 0-10.148-3.562-11.559-8.929-1.673-6.395 2.152-12.922 8.535-14.595 5.224-1.363 10.22-3.729 14.858-7.041 3.048-2.176 5.989-5.02 6.873-5.953.454-.49.837-1.04 1.159-1.626 3.192-5.773 10.46-7.889 16.245-4.696z" fill="#1e0478"/></svg>