<svg id="Layer_1" data-name="Layer 1" xmlns="http://www.w3.org/2000/svg" viewBox="0 0 417.44 430.13"><defs><style>.cls-1{fill:#ffd788;}.cls-2{fill:#e6be8a;}.cls-3{fill:#868491;}.cls-4{fill:#b4b6bc;}.cls-5{fill:#996459;}.cls-6{fill:#7e5c62;}.cls-7{fill:#5c546a;}.cls-8{fill:#1d1d1b;}</style></defs><title>paint_2_1</title><path class="cls-1" d="M215.36,309.36a23.88,23.88,0,0,0,22.56-4.45L471,108.59A52.61,52.61,0,1,0,398.4,32.67L191.72,256.57a23.88,23.88,0,0,0-5.47,22.33Z" transform="translate(-78.56 -15.76)"/><path class="cls-2" d="M474.92,31.87a52.6,52.6,0,0,0-76.52.8L191.72,256.57a23.88,23.88,0,0,0-5.47,22.33L200.65,294Z" transform="translate(-78.56 -15.76)"/><path class="cls-3" d="M237.92,304.91l73.56-62L257,185.89l-65.24,70.68a23.88,23.88,0,0,0-5.47,22.33l29.11,30.46A23.88,23.88,0,0,0,237.92,304.91Z" transform="translate(-78.56 -15.76)"/><path class="cls-4" d="M200.65,294l14.71,15.39a23.88,23.88,0,0,0,22.56-4.45l73.56-62-27.41-28.68Z" transform="translate(-78.56 -15.76)"/><path class="cls-5" d="M208.58,353.1C186,374.65,130.23,387.57,111,388.2a8,8,0,0,1-8.25-8.6c1.43-19.15,16.71-74.1,39.53-95.91a48,48,0,1,1,66.33,69.41Z" transform="translate(-78.56 -15.76)"/><path class="cls-6" d="M210,285.08a48,48,0,0,0-67.71-1.39c-22.82,21.81-38.1,76.76-39.53,95.91a8,8,0,0,0,2.09,6L210,285.08Z" transform="translate(-78.56 -15.76)"/><polygon class="cls-3" points="208.4 247.84 220.66 237.51 167.53 181.91 156.65 193.69 208.4 247.84"/><polygon class="cls-7" points="193.94 209.55 167.53 181.91 156.65 193.69 182.38 220.61 193.94 209.55"/><polygon class="cls-7" points="208.4 247.84 220.66 237.51 220.66 237.51 208.4 247.84"/><ellipse class="cls-8" cx="52.09" cy="400.26" rx="52.09" ry="29.88"/><ellipse class="cls-8" cx="365.35" cy="400.26" rx="52.09" ry="29.88"/><ellipse class="cls-8" cx="319.24" cy="400.26" rx="52.09" ry="29.88"/><ellipse class="cls-8" cx="261.18" cy="400.26" rx="52.09" ry="29.88"/><ellipse class="cls-8" cx="215.06" cy="400.26" rx="52.09" ry="29.88"/><ellipse class="cls-8" cx="180.15" cy="400.26" rx="52.09" ry="29.88"/><ellipse class="cls-8" cx="134.44" cy="400.26" rx="52.09" ry="29.88"/><ellipse class="cls-8" cx="89.09" cy="400.26" rx="52.09" ry="29.88"/></svg>