<svg id="Layer_1" height="512" viewBox="0 0 128 128" width="512" xmlns="http://www.w3.org/2000/svg" data-name="Layer 1"><path d="m17.95 73.23a47.34 47.34 0 0 0 43.6 43.6c54.13 4.07 60.016-65.903 17.942-69.83-11.583-1.08-12.106-12.131-11.458-15.238a7.149 7.149 0 0 0 -.884-5.046 7.393 7.393 0 0 0 -7.134-3.63 47.062 47.062 0 0 0 -42.066 50.144z" fill="#ecd6b2"/><path d="m64 23.806a7.358 7.358 0 0 0 -3.983-.716 47.055 47.055 0 0 0 1.532 93.739q1.243.094 2.451.135z" fill="#f7ecda"/><circle cx="84.558" cy="77.389" fill="#fd9e35" r="12.628"/><circle cx="58.977" cy="97.966" fill="#b20944" r="9.27"/><circle cx="35.786" cy="56.657" fill="#1db6bc" r="6.818"/><circle cx="50.729" cy="40.424" fill="#606de0" r="5.411"/><path d="m46.232 74.934a6.571 6.571 0 0 1 .209-9.493l58.573-53.634a3.075 3.075 0 0 1 4.251.094 3.075 3.075 0 0 1 .094 4.251l-53.634 58.573a6.571 6.571 0 0 1 -9.493.209z" fill="#9f5f4d"/><path d="m46.715 89.149a9.707 9.707 0 0 0 0-13.732c-11.677-11.677-25.005 6.738-18.815 18.819 0 0 2.5-3.888 8.321-2.946 2.032.33 6.672 1.681 10.494-2.141z" fill="#fed33c"/><path d="m49.033 63.067 9.066 9.065 6.079-6.638-8.506-8.506z" fill="#1db6bc"/><path d="m64 90.182a9.27 9.27 0 1 0 0 15.567z" fill="#fc445e"/><path d="m55.725 74.725 53.634-58.573a3.075 3.075 0 0 0 -.094-4.251l-63.033 63.033a6.528 6.528 0 0 0 9.493-.209z" fill="#714437"/><path d="m58.099 72.132 6.079-6.638-4.253-4.253-6.359 6.358z" fill="#17799b"/><path d="m46.207 74.952c-.51.37-13.148 9.6-18.311 19.285 0 0 2.5-3.888 8.321-2.946 2.036.33 6.676 1.681 10.5-2.141a9.707 9.707 0 0 0 0-13.732c-.171-.169-.341-.31-.51-.466z" fill="#fd9e35"/></svg>