<svg id="Capa_1" data-name="Capa 1" xmlns="http://www.w3.org/2000/svg" xmlns:xlink="http://www.w3.org/1999/xlink" viewBox="0 0 374.9 428.27"><defs><style>.cls-1{fill:#1d1d1b;}.cls-2{fill:url(#linear-gradient);}.cls-3{fill:url(#linear-gradient-2);}.cls-4{fill:url(#linear-gradient-3);}.cls-5{fill:url(#linear-gradient-4);}.cls-6{fill:url(#linear-gradient-5);}.cls-7{fill:url(#linear-gradient-6);}.cls-8{fill:url(#linear-gradient-7);}.cls-9{fill:url(#linear-gradient-8);}.cls-10{fill:url(#linear-gradient-9);}.cls-11{fill:url(#linear-gradient-10);}.cls-12{fill:url(#linear-gradient-11);}.cls-13{fill:url(#linear-gradient-12);}.cls-14{fill:url(#linear-gradient-13);}.cls-15{fill:url(#linear-gradient-14);}</style><linearGradient id="linear-gradient" x1="134.27" y1="657.87" x2="23.47" y2="547.07" gradientTransform="translate(6 -329.5) scale(1.07)" gradientUnits="userSpaceOnUse"><stop offset="0" stop-color="#ffcf95"/><stop offset="0.05" stop-color="#fed19a"/><stop offset="1" stop-color="#e8efee"/></linearGradient><linearGradient id="linear-gradient-2" x1="100.28" y1="621.49" x2="106.03" y2="637.59" gradientTransform="translate(6 -329.5) scale(1.07)" gradientUnits="userSpaceOnUse"><stop offset="0" stop-color="#c69c6d" stop-opacity="0"/><stop offset="1" stop-color="#754c24"/></linearGradient><linearGradient id="linear-gradient-3" x1="251.94" y1="530.87" x2="191.9" y2="470.84" gradientTransform="translate(6 -329.5) scale(1.07)" gradientUnits="userSpaceOnUse"><stop offset="0" stop-color="#ff9102"/><stop offset="1" stop-color="#ffc200"/></linearGradient><linearGradient id="linear-gradient-4" x1="198.33" y1="471.8" x2="221.19" y2="494.66" gradientTransform="translate(6 -329.5) scale(1.07)" gradientUnits="userSpaceOnUse"><stop offset="0" stop-color="#ffcf95"/><stop offset="0.43" stop-color="#ffc954"/><stop offset="1" stop-color="#ffc200"/></linearGradient><linearGradient id="linear-gradient-5" x1="180.98" y1="459.91" x2="195.8" y2="474.74" xlink:href="#linear-gradient-4"/><linearGradient id="linear-gradient-6" x1="356.76" y1="336.85" x2="331.64" y2="361.98" gradientTransform="translate(6 -329.5) scale(1.07)" gradientUnits="userSpaceOnUse"><stop offset="0" stop-color="#d63305"/><stop offset="0.37" stop-color="#cf3004"/><stop offset="0.9" stop-color="#bc2602"/><stop offset="1" stop-color="#b72401"/></linearGradient><linearGradient id="linear-gradient-7" x1="378.53" y1="380.58" x2="365.32" y2="367.38" gradientTransform="translate(6 -329.5) scale(1.07)" gradientUnits="userSpaceOnUse"><stop offset="0" stop-color="#960000"/><stop offset="0.33" stop-color="#9c0700" stop-opacity="0.67"/><stop offset="0.81" stop-color="#ae1a01" stop-opacity="0.19"/><stop offset="1" stop-color="#b72401" stop-opacity="0"/></linearGradient><linearGradient id="linear-gradient-8" x1="329.09" y1="364.54" x2="319.91" y2="373.71" gradientTransform="translate(-39.86 -325.13) scale(1.07)" gradientUnits="userSpaceOnUse"><stop offset="0" stop-color="#fff"/><stop offset="1" stop-color="#e8efee"/></linearGradient><linearGradient id="linear-gradient-9" x1="310.15" y1="383.46" x2="304.18" y2="389.44" xlink:href="#linear-gradient-8"/><linearGradient id="linear-gradient-10" x1="289.83" y1="403.78" x2="305.28" y2="388.34" gradientTransform="translate(-39.86 -325.13) scale(1.07)" gradientUnits="userSpaceOnUse"><stop offset="0" stop-color="#ffc200" stop-opacity="0"/><stop offset="0.2" stop-color="#fb0" stop-opacity="0.2"/><stop offset="0.5" stop-color="#ffa700" stop-opacity="0.5"/><stop offset="0.85" stop-color="#f80" stop-opacity="0.85"/><stop offset="1" stop-color="#ff7800"/></linearGradient><linearGradient id="linear-gradient-11" x1="320.05" y1="373.56" x2="312.19" y2="381.43" xlink:href="#linear-gradient-8"/><linearGradient id="linear-gradient-12" x1="60.19" y1="633.42" x2="45.78" y2="647.82" gradientTransform="translate(6 -329.5) scale(1.07)" gradientUnits="userSpaceOnUse"><stop offset="0" stop-color="#363f3e"/><stop offset="1" stop-color="#303033"/></linearGradient><linearGradient id="linear-gradient-13" x1="336.36" y1="397.42" x2="354.1" y2="415.16" gradientTransform="translate(-39.86 -325.13) scale(1.07)" gradientUnits="userSpaceOnUse"><stop offset="0" stop-color="#c2cece" stop-opacity="0"/><stop offset="0.18" stop-color="#afbcbc" stop-opacity="0.18"/><stop offset="1" stop-color="#5b6a6a"/></linearGradient><linearGradient id="linear-gradient-14" x1="295.06" y1="356.12" x2="312.8" y2="373.86" gradientTransform="translate(-39.86 -325.13) scale(1.07)" gradientUnits="userSpaceOnUse"><stop offset="0" stop-color="#c2cece" stop-opacity="0"/><stop offset="0.55" stop-color="#c2cece"/><stop offset="1" stop-color="#c2cece" stop-opacity="0"/></linearGradient></defs><title>pencil_2</title><path class="cls-1" d="M314.23,423.89H48.9c-1.68,0-3-5.9-3-13.19V393.84c0-16.59,3.1-30,6.93-30H314.23c3.83,0,6.94,13.45,6.94,30h0C321.17,410.43,318.06,423.89,314.23,423.89Z" transform="translate(-45.86 4.38)"/><path class="cls-2" d="M139.4,277l-36.18-36.19L91.09,252.92A33.13,33.13,0,0,0,83,266L52.82,357.66a4.67,4.67,0,0,0,5.9,5.89l91.65-30.21a33.24,33.24,0,0,0,13.08-8l12.13-12.13Z" transform="translate(-45.86 4.38)"/><path class="cls-3" d="M163.45,308.94A33.27,33.27,0,0,1,150.37,317L58.72,347.21a4.63,4.63,0,0,1-2.49.13l-3.41,10.32a4.67,4.67,0,0,0,5.9,5.89l91.65-30.21a33.24,33.24,0,0,0,13.08-8l12.13-12.13L167.41,305Z" transform="translate(-45.86 4.38)"/><path class="cls-4" d="M161.14,327.6a16.8,16.8,0,0,0,0-23.76l-.36-.36a16.76,16.76,0,0,0-14.5-4.71,4,4,0,0,1-4.55-4.53,0,0,0,0,1,0,0c.06-.34.09-.67.13-1,0-.17,0-.34,0-.52,0-.36,0-.73,0-1.1A16.74,16.74,0,0,0,137,279.72l-.35-.36c-.21-.2-.42-.4-.64-.59s-.36-.33-.55-.48a8.47,8.47,0,0,0-.89-.69l-.5-.35c-.25-.17-.51-.34-.77-.49l-.73-.4c-.33-.18-.66-.33-1-.47s-.55-.24-.82-.34-.52-.2-.79-.28a17.25,17.25,0,0,0-2-.52c-.32-.07-.64-.12-1-.16s-.65-.07-1-.09-.64-.05-1-.05-.64,0-1,0a15.73,15.73,0,0,0-1.94.19,4,4,0,0,1-4.54-4.55,16.55,16.55,0,0,0,.2-2.63,16.74,16.74,0,0,0-4.92-11.87l-.35-.36a16.82,16.82,0,0,0-23.77,0L293.2,50.8l72.37,72.37Z" transform="translate(-45.86 4.38)"/><path class="cls-5" d="M341.45,99.05l-198.6,198.6a3.92,3.92,0,0,1-1.12-3.41,0,0,0,0,1,0,0c.06-.34.09-.67.13-1,0-.17,0-.34,0-.52,0-.36,0-.72,0-1.1A16.74,16.74,0,0,0,137,279.72l-.35-.36-.63-.59-.55-.48c-.29-.25-.59-.47-.9-.69s-.34-.24-.5-.35-.51-.34-.77-.49-.48-.28-.73-.4-.66-.33-1-.47-.55-.24-.82-.34-.51-.19-.78-.28a17.93,17.93,0,0,0-2-.52c-.3-.07-.63-.11-1-.16s-.63-.07-1-.09a7.74,7.74,0,0,0-1-.05c-.32,0-.65,0-1,0a15.38,15.38,0,0,0-1.93.19,3.93,3.93,0,0,1-3.43-1.12l198.6-198.6Z" transform="translate(-45.86 4.38)"/><path class="cls-6" d="M293.21,50.81,88.77,255.24a16.82,16.82,0,0,1,23.77,0l.35.36a16.74,16.74,0,0,1,4.92,11.87,16.55,16.55,0,0,1-.2,2.63,3.92,3.92,0,0,0,1.12,3.43l198.6-198.6Z" transform="translate(-45.86 4.38)"/><path class="cls-7" d="M390.31,98.43,318,26.06,340.62,3.39a26.53,26.53,0,0,1,37.52,0L413,38.24a26.53,26.53,0,0,1,0,37.52Z" transform="translate(-45.86 4.38)"/><path class="cls-8" d="M366.32,74.44l24,24L413,75.76a26.53,26.53,0,0,0,0-37.52L407.75,33Z" transform="translate(-45.86 4.38)"/><polygon class="cls-9" points="347.69 99.57 275.33 27.2 247.34 55.19 319.71 127.55 347.69 99.57"/><polygon class="cls-10" points="329.04 118.22 256.67 45.86 247.34 55.19 319.71 127.55 329.04 118.22"/><polygon class="cls-11" points="307.75 139.51 235.39 67.14 247.34 55.19 319.71 127.55 307.75 139.51"/><polygon class="cls-12" points="338.37 108.9 266 36.53 256.67 45.86 329.04 118.22 338.37 108.9"/><path class="cls-13" d="M60.48,334.44l-7.66,23.22a4.67,4.67,0,0,0,5.9,5.89l23.21-7.65Z" transform="translate(-45.86 4.38)"/><polygon class="cls-14" points="347.69 99.57 323.7 75.58 295.72 103.56 319.71 127.55 347.69 99.57"/><polygon class="cls-15" points="311 62.88 287.01 38.89 259.03 66.87 283.02 90.86 311 62.88"/></svg>