<svg height="512" viewBox="0 0 64 64" width="512" xmlns="http://www.w3.org/2000/svg"><path d="m13 54a3 3 0 1 0 -3-3 3 3 0 0 0 3 3zm0-4a1 1 0 1 1 -1 1 1 1 0 0 1 1-1z"/><path d="m6 51a7 7 0 1 0 7-7 7 7 0 0 0 -7 7zm7-5a5 5 0 1 1 -5 5 5 5 0 0 1 5-5z"/><path d="m13 35a1 1 0 0 0 0-2 4 4 0 1 0 4 4 1 1 0 0 0 -2 0 2 2 0 1 1 -2-2z"/><path d="m61 53a1 1 0 0 0 1-1v-33a1 1 0 0 0 -1-1h-12a1 1 0 0 0 -1 1v25h-7v-4a1 1 0 0 0 -2 0v4h-2v-2a1 1 0 0 0 -2 0v2h-2v-4a1 1 0 0 0 -2 0v4h-3v-8h16v5a1 1 0 0 0 2 0v-6a1 1 0 0 0 -1-1h-18a1 1 0 0 0 -1 1v10a1 1 0 0 0 1 1h21v14h-24v-7a1 1 0 0 0 -2 0v7h-18v-30h18v19a1 1 0 0 0 2 0v-20a1 1 0 0 0 -1-1h-20a1 1 0 0 0 -1 1v32a1 1 0 0 0 1 1h58a1 1 0 0 0 1-1v-5a1 1 0 0 0 -2 0v4h-10v-40h10v32a1 1 0 0 0 1 1z"/><path d="m55 53a1 1 0 0 0 0-2 3 3 0 1 0 3 3 1 1 0 0 0 -2 0 1 1 0 1 1 -1-1z"/><path d="m55 42a3 3 0 1 0 3 3 3 3 0 0 0 -3-3zm0 4a1 1 0 1 1 1-1 1 1 0 0 1 -1 1z"/><path d="m57 35a1 1 0 0 0 -1 1 1 1 0 1 1 -1-1 1 1 0 0 0 0-2 3 3 0 1 0 3 3 1 1 0 0 0 -1-1z"/><path d="m55 24a3 3 0 1 0 3 3 3 3 0 0 0 -3-3zm0 4a1 1 0 1 1 1-1 1 1 0 0 1 -1 1z"/><path d="m30 49a1 1 0 0 0 -1 1v.14a4 4 0 1 0 2 0v-.14a1 1 0 0 0 -1-1zm2 5a2 2 0 1 1 -3-1.72v.72a1 1 0 0 0 2 0v-.72a2 2 0 0 1 1 1.72z"/><path d="m43.86 55h.14a1 1 0 0 0 0-2h-.14a4 4 0 1 0 0 2zm-5.86-1a2 2 0 0 1 3.72-1h-.72a1 1 0 0 0 0 2h.72a2 2 0 0 1 -3.72-1z"/><path d="m24 14a3 3 0 0 0 3-3v-3h3a1 1 0 0 0 0-2h-3v-2h6v6.18a3 3 0 1 0 2 2.82v-10a1 1 0 0 0 -1-1h-8a1 1 0 0 0 -1 1v5.18a3 3 0 1 0 -1 5.82zm8 0a1 1 0 1 1 1-1 1 1 0 0 1 -1 1zm-8-4a1 1 0 1 1 -1 1 1 1 0 0 1 1-1z"/><path d="m33.5 23.4a3 3 0 0 0 -3 5.2 3 3 0 0 0 2.28.3 3 3 0 0 0 1.82-1.4l2.5-4.33 4.33 2.5a1 1 0 0 0 .5.13 1 1 0 0 0 .86-.5l2-3.46a1 1 0 0 0 .1-.76 1 1 0 0 0 -.46-.61l-5.2-3a1 1 0 0 0 -1.36.37l-2 3.46-1.59 2.76a3.11 3.11 0 0 0 -.78-.66zm5.6-3.69 3.46 2-1 1.73-3.46-2zm-6.84 7.29a1.05 1.05 0 0 1 -.76-.1 1 1 0 0 1 1-1.74 1 1 0 0 1 .47.61 1 1 0 0 1 -.1.76 1 1 0 0 1 -.61.47z"/><path d="m17 20h1v1a1 1 0 0 0 2 0v-1h1a1 1 0 0 0 0-2h-1v-1a1 1 0 0 0 -2 0v1h-1a1 1 0 0 0 0 2z"/><path d="m42 8h1v1a1 1 0 0 0 2 0v-1h1a1 1 0 0 0 0-2h-1v-1a1 1 0 0 0 -2 0v1h-1a1 1 0 0 0 0 2z"/><circle cx="45" cy="14" r="1"/><circle cx="28" cy="21" r="1"/><circle cx="40" cy="13" r="1"/></svg>